<svg width="28" height="28" viewBox="0 0 28 28" fill="none" xmlns="http://www.w3.org/2000/svg">
<path d="M20 0C24.4183 0 28 3.58172 28 8V20C28 24.4183 24.4183 28 20 28H8C3.58172 28 1.93283e-07 24.4183 0 20V8C0 3.58172 3.58172 1.93277e-07 8 0H20ZM14.1475 5C9.18531 5 5 8.85292 5 13.9756C5.00005 16.1236 5.39233 17.602 5.74512 18.9307C6.03314 20.0154 6.29492 21.0007 6.29492 22.1699C6.41472 23.6623 9.02849 22.8952 10.0498 21.8018C10.1262 21.72 10.2516 21.7028 10.3428 21.7676C11.6692 22.7103 12.4945 22.9502 14.1943 22.9502C18.9855 22.9501 22.9997 19.0094 23 14.0254C23 9.04113 19.1095 5.00009 14.1475 5ZM14.2861 9.44141C16.7037 9.56867 18.6364 11.6901 18.5098 14.1172C18.3829 16.544 16.2407 18.4437 13.8232 18.3164C13.088 18.2777 12.4211 18.0051 11.832 17.6436C11.7488 17.5926 11.6413 17.6039 11.5703 17.6709C11.1924 18.0286 10.6729 18.4274 10.457 18.3721C9.94814 18.2414 9.35294 15.6514 9.68848 13.5254C10.0937 10.9581 11.9314 9.31762 14.2861 9.44141Z" fill="#FF7D2C"/>
</svg>
