<svg width="28" height="28" viewBox="0 0 28 28" fill="none" xmlns="http://www.w3.org/2000/svg">
<path d="M25 0C26.6569 1.28851e-07 28 1.34315 28 3V25C28 26.6569 26.6569 28 25 28H3C1.34315 28 1.61066e-08 26.6569 0 25V3C1.28853e-07 1.34315 1.34315 1.61064e-08 3 0H25ZM21.6406 6.59473C20.9541 6.60754 19.9028 6.98596 14.8379 9.16406C13.066 9.92695 9.52174 11.5057 4.20605 13.9004C3.34307 14.2553 2.88968 14.603 2.84961 14.9424C2.76984 15.5944 3.67883 15.7977 4.81836 16.1816C5.74992 16.4945 7.00381 16.8606 7.65332 16.875C8.24569 16.8881 8.90371 16.6367 9.62988 16.1201C14.5943 12.6559 17.1552 10.9027 17.3213 10.8623C17.4352 10.8358 17.5928 10.8023 17.6982 10.9004C17.8061 10.998 17.7946 11.1831 17.7832 11.2334C17.6949 11.6314 13.0296 16.0191 12.7607 16.3086C11.7352 17.4105 10.5669 18.0857 12.3672 19.3125C13.9254 20.374 14.8318 21.0507 16.4355 22.1387C17.461 22.8337 18.2646 23.6582 19.3242 23.5576C19.8114 23.5114 20.3158 23.0371 20.5693 21.624C21.1733 18.2842 22.3613 11.049 22.6348 8.06738C22.6604 7.80635 22.6292 7.47194 22.6064 7.3252C22.5808 7.17832 22.529 6.96914 22.3467 6.81445C22.1273 6.63123 21.7916 6.59223 21.6406 6.59473Z" fill="#FF7D2C"/>
</svg>
