<svg width="28" height="28" viewBox="0 0 28 28" fill="none" xmlns="http://www.w3.org/2000/svg">
<path d="M25 0C26.6569 1.28851e-07 28 1.34315 28 3V25C28 26.6569 26.6569 28 25 28H3C1.34315 28 1.61066e-08 26.6569 0 25V3C1.28853e-07 1.34315 1.34315 1.61064e-08 3 0H25ZM14 2.4502C8.01619 2.4502 3.15067 7.31491 3.15039 13.2979C3.15039 15.1047 3.60382 16.8858 4.46582 18.4697L3.17578 23.293C3.1103 23.5293 3.17792 23.7794 3.34766 23.9492C3.47922 24.0807 3.6555 24.1465 3.82812 24.1465C3.8865 24.1465 3.93864 24.1392 3.98926 24.1279L3.99609 24.127L4.00293 24.125L8.82715 22.833C10.4115 23.6952 12.1925 24.1494 14 24.1494C19.9839 24.1494 24.8494 19.2848 24.8496 13.3018C24.8495 7.31881 19.9841 2.4502 14 2.4502ZM14 3.80469C19.2367 3.80469 23.4939 8.06524 23.4941 13.2979C23.4941 18.5339 19.237 22.791 14 22.791C12.3343 22.791 10.6933 22.3515 9.25586 21.5176C9.14374 21.4518 9.02172 21.4277 8.91699 21.4277C8.85852 21.4277 8.80654 21.435 8.75586 21.4463L8.74902 21.4482L8.74121 21.4502L4.78418 22.5117L5.84375 18.5596L5.86523 18.4258C5.87343 18.2922 5.84135 18.1612 5.77734 18.0479L5.77637 18.0449L5.625 17.7725C4.89181 16.3988 4.50586 14.8592 4.50586 13.2979C4.50614 8.06524 8.76325 3.80469 14 3.80469ZM9.50098 6.93359C9.43846 6.93365 9.37991 6.94921 9.3252 6.97656C9.30169 6.98831 6.86542 8.24939 7.54297 11.3516C7.54687 11.375 7.55473 11.4023 7.56641 11.4258C7.68 11.6921 10.4573 17.924 16.4111 19.2949C16.4469 19.3028 16.7405 19.3506 17.1592 19.3506C18.1149 19.3506 19.7321 19.099 20.5625 17.5244C20.5899 17.4736 20.6064 17.419 20.6064 17.3643L20.6885 15.8955C20.7002 15.7271 20.6137 15.5822 20.4727 15.5117L17.5781 14.1055C17.4215 14.0311 17.2298 14.0662 17.1123 14.1992C16.9752 14.352 16.7712 14.5793 16.5166 14.8457L16.4072 14.959C15.8471 15.5387 15.6937 15.6952 15.5527 15.7188C15.4275 15.7422 15.3062 15.7229 14.9385 15.5469C13.7403 14.9713 12.9568 14.2194 12.874 14.1367C12.3531 13.6197 11.8946 13.0359 11.5146 12.3936C11.4912 12.2878 11.4794 12.1702 11.499 12.0488C11.5578 11.7003 11.8124 11.3359 12.2275 10.9951C12.3528 10.8933 12.4035 10.7211 12.3486 10.5645L11.1973 7.19922C11.1423 7.04279 10.9935 6.93359 10.8252 6.93359H9.50098Z" fill="#FF7D2C"/>
</svg>
